<svg width="629" height="629" viewBox="0 0 629 629" fill="none" xmlns="http://www.w3.org/2000/svg">
<rect x="15.5" y="15.5" width="598" height="598" fill="#A6B6D7" stroke="black" stroke-width="31"/>
<path d="M130.412 435.168H111.016L111.138 420.85H130.412C135.226 420.85 139.284 419.769 142.589 417.607C145.893 415.405 148.381 412.203 150.054 408.001C151.767 403.799 152.623 398.721 152.623 392.765V388.421C152.623 383.852 152.134 379.834 151.155 376.367C150.217 372.899 148.809 369.983 146.933 367.617C145.057 365.251 142.752 363.476 140.019 362.293C137.286 361.07 134.145 360.458 130.596 360.458H110.648V346.079H130.596C136.551 346.079 141.997 347.098 146.933 349.138C151.91 351.137 156.213 354.013 159.844 357.765C163.474 361.518 166.268 366.005 168.226 371.227C170.225 376.407 171.225 382.18 171.225 388.543V392.765C171.225 399.088 170.225 404.86 168.226 410.081C166.268 415.303 163.474 419.79 159.844 423.543C156.254 427.255 151.95 430.131 146.933 432.17C141.956 434.169 136.449 435.168 130.412 435.168ZM121.418 346.079V435.168H103.061V346.079H121.418ZM244.344 420.85V435.168H196.924V420.85H244.344ZM202.92 346.079V435.168H184.564V346.079H202.92ZM238.164 382.363V396.314H196.924V382.363H238.164ZM244.283 346.079V360.458H196.924V346.079H244.283ZM301.433 411.856C301.433 410.265 301.188 408.837 300.699 407.573C300.25 406.267 299.393 405.084 298.129 404.024C296.864 402.922 295.09 401.841 292.805 400.781C290.521 399.72 287.564 398.619 283.933 397.477C279.895 396.171 276.06 394.703 272.43 393.071C268.84 391.439 265.658 389.543 262.885 387.381C260.151 385.178 257.989 382.628 256.399 379.732C254.848 376.836 254.073 373.47 254.073 369.636C254.073 365.924 254.889 362.559 256.521 359.54C258.153 356.481 260.437 353.87 263.374 351.708C266.311 349.505 269.778 347.812 273.776 346.629C277.814 345.446 282.24 344.855 287.054 344.855C293.621 344.855 299.353 346.038 304.248 348.404C309.143 350.77 312.936 354.013 315.629 358.133C318.362 362.253 319.728 366.964 319.728 372.267H301.494C301.494 369.656 300.944 367.372 299.842 365.414C298.782 363.415 297.15 361.845 294.947 360.702C292.785 359.56 290.052 358.989 286.748 358.989C283.566 358.989 280.915 359.479 278.793 360.458C276.672 361.396 275.081 362.681 274.021 364.313C272.96 365.903 272.43 367.698 272.43 369.697C272.43 371.206 272.797 372.573 273.531 373.797C274.306 375.021 275.448 376.163 276.958 377.223C278.467 378.284 280.323 379.283 282.526 380.222C284.729 381.16 287.278 382.078 290.174 382.975C295.029 384.443 299.291 386.096 302.963 387.931C306.675 389.767 309.775 391.827 312.263 394.111C314.752 396.396 316.628 398.986 317.893 401.882C319.157 404.778 319.789 408.062 319.789 411.733C319.789 415.609 319.035 419.076 317.526 422.135C316.016 425.195 313.834 427.785 310.978 429.906C308.123 432.027 304.717 433.639 300.76 434.74C296.803 435.842 292.377 436.392 287.482 436.392C283.077 436.392 278.732 435.821 274.449 434.679C270.166 433.496 266.27 431.722 262.762 429.356C259.295 426.99 256.521 423.971 254.441 420.3C252.36 416.628 251.32 412.284 251.32 407.267H269.738C269.738 410.041 270.166 412.386 271.023 414.303C271.879 416.221 273.083 417.771 274.633 418.954C276.224 420.137 278.1 420.993 280.262 421.524C282.465 422.054 284.871 422.319 287.482 422.319C290.664 422.319 293.275 421.87 295.314 420.973C297.395 420.075 298.924 418.831 299.903 417.24C300.923 415.649 301.433 413.855 301.433 411.856ZM351.791 346.079V435.168H333.496V346.079H351.791ZM439.596 388.604V423.91C438.209 425.582 436.067 427.398 433.171 429.356C430.275 431.273 426.542 432.925 421.974 434.312C417.405 435.699 411.878 436.392 405.392 436.392C399.64 436.392 394.398 435.454 389.666 433.578C384.934 431.66 380.855 428.866 377.429 425.195C374.043 421.524 371.432 417.036 369.597 411.733C367.761 406.39 366.843 400.291 366.843 393.438V387.87C366.843 381.017 367.72 374.919 369.474 369.575C371.269 364.231 373.819 359.723 377.123 356.052C380.427 352.381 384.363 349.587 388.932 347.669C393.501 345.752 398.579 344.794 404.168 344.794C411.918 344.794 418.282 346.058 423.259 348.587C428.235 351.076 432.029 354.543 434.64 358.989C437.291 363.395 438.923 368.453 439.535 374.164H421.729C421.28 371.145 420.424 368.514 419.159 366.271C417.894 364.027 416.079 362.273 413.713 361.008C411.388 359.744 408.369 359.112 404.657 359.112C401.598 359.112 398.865 359.744 396.458 361.008C394.092 362.232 392.093 364.047 390.462 366.454C388.83 368.861 387.586 371.839 386.729 375.388C385.873 378.937 385.444 383.057 385.444 387.748V393.438C385.444 398.088 385.893 402.208 386.79 405.798C387.688 409.347 389.014 412.345 390.768 414.793C392.563 417.2 394.765 419.015 397.376 420.239C399.987 421.462 403.026 422.074 406.493 422.074C409.389 422.074 411.796 421.829 413.713 421.34C415.671 420.85 417.242 420.259 418.425 419.565C419.649 418.831 420.587 418.138 421.239 417.485V401.699H404.474V388.604H439.596ZM526.911 346.079V435.168H508.555L472.76 375.449V435.168H454.403V346.079H472.76L508.616 405.859V346.079H526.911Z" fill="#F2F2F2"/>
<path d="M193.896 248.486V292.852C192.153 294.954 189.462 297.235 185.822 299.695C182.183 302.105 177.492 304.181 171.751 305.924C166.01 307.666 159.064 308.538 150.914 308.538C143.686 308.538 137.099 307.359 131.153 305.001C125.206 302.592 120.08 299.08 115.774 294.467C111.52 289.853 108.239 284.215 105.932 277.551C103.625 270.835 102.472 263.172 102.472 254.56V247.563C102.472 238.951 103.574 231.288 105.778 224.572C108.034 217.857 111.238 212.193 115.39 207.579C119.542 202.966 124.489 199.454 130.23 197.045C135.971 194.636 142.353 193.431 149.376 193.431C159.115 193.431 167.112 195.02 173.366 198.199C179.62 201.326 184.387 205.683 187.668 211.27C191 216.806 193.05 223.163 193.819 230.339H171.444C170.88 226.546 169.803 223.24 168.214 220.42C166.625 217.601 164.344 215.397 161.371 213.808C158.449 212.218 154.656 211.424 149.991 211.424C146.146 211.424 142.712 212.218 139.688 213.808C136.714 215.345 134.203 217.627 132.152 220.651C130.102 223.675 128.538 227.417 127.462 231.877C126.385 236.337 125.847 241.514 125.847 247.409V254.56C125.847 260.404 126.411 265.581 127.539 270.092C128.666 274.552 130.332 278.319 132.537 281.395C134.792 284.42 137.56 286.701 140.841 288.238C144.122 289.776 147.941 290.545 152.298 290.545C155.937 290.545 158.962 290.238 161.371 289.623C163.831 289.007 165.805 288.264 167.292 287.393C168.829 286.47 170.008 285.599 170.829 284.778V264.94H149.76V248.486H193.896ZM258.023 214.192L227.574 307H203.046L244.644 195.046H260.253L258.023 214.192ZM283.321 307L252.795 214.192L250.334 195.046H266.097L307.926 307H283.321ZM281.937 265.325V283.394H222.807V265.325H281.937ZM328.84 195.046H348.371L377.128 277.243L405.886 195.046H425.416L384.971 307H369.285L328.84 195.046ZM318.306 195.046H337.76L341.297 275.167V307H318.306V195.046ZM416.497 195.046H436.027V307H412.96V275.167L416.497 195.046ZM531.373 289.007V307H471.782V289.007H531.373ZM479.317 195.046V307H456.25V195.046H479.317ZM523.606 240.643V258.174H471.782V240.643H523.606ZM531.296 195.046V213.116H471.782V195.046H531.296Z" fill="#F2F2F2"/>
</svg>
