<svg width="391" height="464" viewBox="0 0 391 464" fill="none" xmlns="http://www.w3.org/2000/svg">
<path d="M219.877 260.453L179.75 246.964C183.029 237.557 186.496 229.674 190.152 223.313C193.949 216.883 198.513 211.47 203.844 207.073C209.28 202.712 215.852 198.792 223.561 195.311C229.973 192.563 235.684 189.812 240.696 187.06C245.708 184.308 249.969 181.186 253.477 177.695C257.022 174.099 259.675 169.679 261.439 164.433C263.484 158.349 264.233 152.996 263.684 148.374C263.276 143.684 261.589 139.672 258.623 136.339C255.761 133.042 251.603 130.477 246.148 128.643C241.637 127.126 237.105 126.712 232.554 127.401C228.037 127.984 223.85 129.846 219.992 132.986C216.239 136.161 213.217 140.983 210.925 147.453L165.29 132.112C170.437 117.845 177.726 107.101 187.16 99.8804C196.733 92.59 207.628 88.4878 219.845 87.574C232.098 86.5552 244.885 88.2853 258.209 92.7642C272.896 97.7015 284.674 104.346 293.542 112.699C302.446 120.946 308.126 130.621 310.583 141.722C313.075 152.718 312.117 164.773 307.708 177.886C304.64 187.013 300.124 194.544 294.159 200.479C288.229 206.308 281.356 211.296 273.541 215.441C265.725 219.586 257.263 223.747 248.152 227.923C240.374 231.263 234.396 235.501 230.218 240.635C226.144 245.804 222.698 252.41 219.877 260.453ZM158.683 294.001C160.94 287.287 165.117 282.503 171.214 279.649C177.347 276.689 184.295 276.515 192.058 279.124C199.716 281.699 205.095 286.017 208.194 292.08C211.434 298.073 211.925 304.427 209.668 311.141C207.482 317.645 203.27 322.359 197.032 325.283C190.9 328.243 184.005 328.435 176.346 325.861C168.583 323.251 163.152 318.915 160.052 312.852C156.953 306.789 156.496 300.506 158.683 294.001Z" fill="#F2F2F2"/>
<path d="M119.651 297.031L88.4082 305.022C86.6097 297.65 85.5625 291.173 85.2665 285.592C85.0312 279.909 85.7077 274.558 87.296 269.539C88.966 264.5 91.5449 259.272 95.0327 253.855C97.9943 249.442 100.508 245.318 102.573 241.483C104.638 237.648 106.069 233.888 106.867 230.203C107.644 226.436 107.511 222.511 106.466 218.427C105.254 213.69 103.516 209.957 101.252 207.229C99.0491 204.399 96.3091 202.532 93.0325 201.63C89.8375 200.706 86.1164 200.788 81.869 201.874C78.3567 202.772 75.2879 204.384 72.6626 206.709C70.0165 208.952 68.1101 211.876 66.9436 215.482C65.8588 219.066 65.9232 223.401 67.1367 228.486L31.6055 237.573C28.9886 226.32 29.2009 216.432 32.2425 207.909C35.3449 199.284 40.6127 192.149 48.0459 186.506C55.4581 180.781 64.351 176.592 74.7245 173.939C86.1598 171.015 96.4419 170.387 105.571 172.055C114.679 173.641 122.317 177.475 128.484 183.556C134.631 189.555 139.01 197.659 141.621 207.869C143.439 214.976 143.669 221.661 142.312 227.926C140.935 234.109 138.606 240.143 135.325 246.03C132.044 251.916 128.356 258.081 124.26 264.524C120.67 269.88 118.602 275.065 118.056 280.078C117.593 285.07 118.124 290.721 119.651 297.031ZM94.4152 343.821C93.0782 338.593 93.768 333.805 96.4846 329.455C99.1802 325.023 103.55 322.035 109.595 320.489C115.557 318.964 120.785 319.498 125.277 322.091C129.83 324.581 132.775 328.441 134.112 333.668C135.407 338.732 134.666 343.491 131.889 347.943C129.193 352.374 124.864 355.353 118.901 356.878C112.857 358.423 107.589 357.9 103.096 355.307C98.6041 352.714 95.7104 348.885 94.4152 343.821Z" fill="#F2F2F2"/>
<path d="M246.128 364.488L228.464 344.207C233.283 340.104 237.715 336.896 241.762 334.584C245.908 332.279 250.148 330.777 254.482 330.079C258.862 329.434 263.724 329.396 269.067 329.964C273.464 330.516 277.478 330.843 281.11 330.944C284.741 331.045 288.078 330.702 291.123 329.915C294.22 329.082 297.095 327.511 299.746 325.202C302.821 322.524 304.951 319.83 306.134 317.121C307.417 314.419 307.78 311.678 307.225 308.898C306.715 306.172 305.259 303.43 302.858 300.673C300.872 298.393 298.521 296.711 295.805 295.627C293.142 294.496 290.249 294.172 287.126 294.654C284.049 295.19 280.844 296.862 277.51 299.672L257.422 276.608C264.825 270.44 272.271 266.892 279.761 265.964C287.35 265.042 294.639 266.292 301.629 269.715C308.673 273.091 315.127 278.146 320.992 284.88C327.457 292.303 331.779 299.728 333.958 307.154C336.19 314.534 336.196 321.661 333.978 328.535C331.813 335.363 327.416 341.663 320.788 347.436C316.175 351.453 311.281 354.131 306.106 355.468C300.983 356.76 295.614 357.286 289.999 357.049C284.384 356.811 278.409 356.374 272.073 355.737C266.737 355.07 262.099 355.473 258.161 356.946C254.268 358.471 250.257 360.985 246.128 364.488ZM201.811 363.225C205.204 360.27 209.03 358.989 213.289 359.382C217.601 359.73 221.465 361.865 224.883 365.789C228.254 369.659 229.815 373.754 229.567 378.073C229.418 382.398 227.647 386.039 224.254 388.994C220.967 391.857 217.144 393.089 212.786 392.688C208.474 392.341 204.633 390.232 201.261 386.362C197.844 382.438 196.26 378.317 196.508 373.998C196.756 369.679 198.523 366.089 201.811 363.225Z" fill="#F2F2F2"/>
</svg>
