<svg width="629" height="629" viewBox="0 0 629 629" fill="none" xmlns="http://www.w3.org/2000/svg">
<rect x="15.5" y="15.5" width="598" height="598" fill="#BE0426" stroke="black" stroke-width="31"/>
<path d="M130.412 534H111.016L111.138 519.682H130.412C135.226 519.682 139.284 518.601 142.589 516.439C145.893 514.236 148.381 511.034 150.054 506.832C151.767 502.631 152.623 497.552 152.623 491.597V487.252C152.623 482.684 152.134 478.666 151.155 475.198C150.217 471.731 148.809 468.814 146.933 466.448C145.057 464.082 142.752 462.308 140.019 461.125C137.286 459.901 134.145 459.289 130.596 459.289H110.648V444.91H130.596C136.551 444.91 141.997 445.93 146.933 447.969C151.91 449.968 156.213 452.844 159.844 456.597C163.474 460.35 166.268 464.837 168.226 470.058C170.225 475.239 171.225 481.011 171.225 487.375V491.597C171.225 497.919 170.225 503.691 168.226 508.913C166.268 514.134 163.474 518.621 159.844 522.374C156.254 526.086 151.95 528.962 146.933 531.002C141.956 533.001 136.449 534 130.412 534ZM121.418 444.91V534H103.061V444.91H121.418ZM244.344 519.682V534H196.924V519.682H244.344ZM202.92 444.91V534H184.564V444.91H202.92ZM238.164 481.195V495.146H196.924V481.195H238.164ZM244.283 444.91V459.289H196.924V444.91H244.283ZM301.433 510.687C301.433 509.096 301.188 507.669 300.699 506.404C300.25 505.099 299.393 503.916 298.129 502.855C296.864 501.754 295.09 500.673 292.805 499.612C290.521 498.552 287.564 497.45 283.933 496.308C279.895 495.003 276.06 493.534 272.43 491.903C268.84 490.271 265.658 488.374 262.885 486.212C260.151 484.009 257.989 481.46 256.399 478.564C254.848 475.667 254.073 472.302 254.073 468.468C254.073 464.755 254.889 461.39 256.521 458.371C258.153 455.312 260.437 452.701 263.374 450.539C266.311 448.337 269.778 446.644 273.776 445.461C277.814 444.278 282.24 443.686 287.054 443.686C293.621 443.686 299.353 444.869 304.248 447.235C309.143 449.601 312.936 452.844 315.629 456.964C318.362 461.084 319.728 465.796 319.728 471.099H301.494C301.494 468.488 300.944 466.204 299.842 464.246C298.782 462.247 297.15 460.676 294.947 459.534C292.785 458.392 290.052 457.821 286.748 457.821C283.566 457.821 280.915 458.31 278.793 459.289C276.672 460.228 275.081 461.512 274.021 463.144C272.96 464.735 272.43 466.53 272.43 468.529C272.43 470.038 272.797 471.405 273.531 472.628C274.306 473.852 275.448 474.994 276.958 476.055C278.467 477.115 280.323 478.115 282.526 479.053C284.729 479.991 287.278 480.909 290.174 481.807C295.029 483.275 299.291 484.927 302.963 486.763C306.675 488.598 309.775 490.658 312.263 492.943C314.752 495.227 316.628 497.817 317.893 500.714C319.157 503.61 319.789 506.894 319.789 510.565C319.789 514.44 319.035 517.908 317.526 520.967C316.016 524.026 313.834 526.617 310.978 528.738C308.123 530.859 304.717 532.47 300.76 533.572C296.803 534.673 292.377 535.224 287.482 535.224C283.077 535.224 278.732 534.653 274.449 533.51C270.166 532.328 266.27 530.553 262.762 528.187C259.295 525.821 256.521 522.803 254.441 519.131C252.36 515.46 251.32 511.116 251.32 506.098H269.738C269.738 508.872 270.166 511.218 271.023 513.135C271.879 515.052 273.083 516.602 274.633 517.785C276.224 518.968 278.1 519.825 280.262 520.355C282.465 520.885 284.871 521.15 287.482 521.15C290.664 521.15 293.275 520.702 295.314 519.804C297.395 518.907 298.924 517.663 299.903 516.072C300.923 514.481 301.433 512.686 301.433 510.687ZM351.791 444.91V534H333.496V444.91H351.791ZM439.596 487.436V522.741C438.209 524.414 436.067 526.229 433.171 528.187C430.275 530.104 426.542 531.756 421.974 533.143C417.405 534.53 411.878 535.224 405.392 535.224C399.64 535.224 394.398 534.286 389.666 532.409C384.934 530.492 380.855 527.698 377.429 524.026C374.043 520.355 371.432 515.868 369.597 510.565C367.761 505.221 366.843 499.123 366.843 492.27V486.702C366.843 479.849 367.72 473.75 369.474 468.406C371.269 463.063 373.819 458.555 377.123 454.884C380.427 451.212 384.363 448.418 388.932 446.501C393.501 444.584 398.579 443.625 404.168 443.625C411.918 443.625 418.282 444.89 423.259 447.419C428.235 449.907 432.029 453.374 434.64 457.821C437.291 462.226 438.923 467.285 439.535 472.995H421.729C421.28 469.977 420.424 467.346 419.159 465.102C417.894 462.859 416.079 461.105 413.713 459.84C411.388 458.575 408.369 457.943 404.657 457.943C401.598 457.943 398.865 458.575 396.458 459.84C394.092 461.064 392.093 462.879 390.462 465.286C388.83 467.692 387.586 470.67 386.729 474.219C385.873 477.768 385.444 481.888 385.444 486.579V492.27C385.444 496.92 385.893 501.04 386.79 504.63C387.688 508.179 389.014 511.177 390.768 513.624C392.563 516.031 394.765 517.846 397.376 519.07C399.987 520.294 403.026 520.906 406.493 520.906C409.389 520.906 411.796 520.661 413.713 520.171C415.671 519.682 417.242 519.09 418.425 518.397C419.649 517.663 420.587 516.969 421.239 516.317V500.53H404.474V487.436H439.596ZM526.911 444.91V534H508.555L472.76 474.28V534H454.403V444.91H472.76L508.616 504.691V444.91H526.911Z" fill="#F2F2F2"/>
<path d="M250.088 152.281H299.727V311.988C299.727 330.582 295.742 346.243 287.773 358.971C279.915 371.699 269.014 381.272 255.068 387.691C241.234 394.111 225.296 397.32 207.256 397.32C189.215 397.32 173.167 394.111 159.111 387.691C145.166 381.272 134.209 371.699 126.24 358.971C118.382 346.243 114.453 330.582 114.453 311.988V152.281H164.258V311.988C164.258 322.835 165.973 331.689 169.404 338.551C172.835 345.413 177.76 350.449 184.18 353.658C190.71 356.868 198.402 358.473 207.256 358.473C216.331 358.473 224.023 356.868 230.332 353.658C236.751 350.449 241.621 345.413 244.941 338.551C248.372 331.689 250.088 322.835 250.088 311.988V152.281ZM381.738 152.281L427.227 236.617L472.715 152.281H529.658L459.434 272.145L531.484 394H474.043L427.227 308.004L380.41 394H322.637L394.854 272.145L324.463 152.281H381.738Z" fill="#F2F2F2"/>
</svg>
